<?xml version="1.0" standalone="no"?>
<!DOCTYPE svg PUBLIC "-//W3C//DTD SVG 20010904//EN"
 "http://www.w3.org/TR/2001/REC-SVG-20010904/DTD/svg10.dtd">
<svg version="1.0" xmlns="http://www.w3.org/2000/svg"
 width="1920.000000pt" height="1920.000000pt" viewBox="0 0 1920.000000 1920.000000"
 preserveAspectRatio="xMidYMid meet">
<metadata>
Created by potrace 1.14, written by Peter Selinger 2001-2017
</metadata>
<g transform="translate(0.000000,1920.000000) scale(0.100000,-0.100000)"
fill="#000000" stroke="none">
<path d="M19023 11687 c-95 -61 -207 -134 -250 -161 -43 -27 -128 -82 -189
-122 -61 -40 -123 -79 -138 -85 -14 -7 -26 -16 -26 -21 0 -4 -4 -8 -8 -8 -10
0 -135 -74 -237 -141 -38 -25 -123 -78 -187 -118 -65 -39 -171 -103 -235 -143
-65 -39 -127 -76 -138 -82 -11 -6 -92 -54 -180 -107 -88 -53 -207 -124 -265
-158 -139 -82 -141 -83 -170 -102 -14 -9 -54 -32 -90 -51 -36 -19 -143 -80
-238 -134 -197 -113 -214 -122 -337 -188 -49 -27 -119 -66 -155 -86 -36 -21
-117 -64 -180 -97 -63 -33 -146 -78 -185 -99 -267 -145 -1042 -531 -1282 -639
-36 -15 -60 -32 -56 -38 3 -6 1 -7 -5 -3 -7 4 -69 -20 -139 -52 -71 -33 -202
-92 -293 -132 -91 -40 -183 -80 -205 -90 -22 -10 -114 -49 -205 -87 -424 -179
-1091 -433 -1400 -533 -421 -138 -714 -230 -790 -250 -47 -13 -92 -25 -100
-27 -8 -2 -16 -4 -17 -4 -2 0 -33 -9 -70 -20 -236 -69 -740 -197 -863 -219
-36 -6 -101 -20 -145 -30 -275 -65 -925 -178 -1172 -205 -21 -2 -159 -17 -308
-34 -567 -62 -923 -82 -1500 -82 -910 -1 -1702 81 -2720 281 -257 51 -342 67
-400 76 -16 2 -48 9 -70 14 -22 6 -175 39 -340 75 -165 36 -336 74 -380 84
-44 11 -105 24 -135 30 -69 13 -242 50 -430 91 -80 18 -183 40 -230 50 -826
181 -1783 333 -2300 365 -47 2 -124 8 -172 11 l-88 7 0 -4212 0 -4211 9600 0
9600 0 0 5900 c0 3245 -1 5900 -2 5900 -2 0 -81 -51 -175 -113z"/>
</g>
</svg>
